TITLE ""
FILE "P1Q_t_1339-1348.mp3" MP3
  TRACK 01 AUDIO
    TITLE "P1Q_t_1339-1348_01"
    INDEX 01 00:00:00
  TRACK 02 AUDIO
    TITLE "P1Q_t_1339-1348_02"
    INDEX 01 00:01:31
  TRACK 03 AUDIO
    TITLE "P1Q_t_1339-1348_03"
    INDEX 01 00:01:51
  TRACK 04 AUDIO
    TITLE "P1Q_t_1339-1348_04"
    INDEX 01 00:02:64
  TRACK 05 AUDIO
    TITLE "P1Q_t_1339-1348_05"
    INDEX 01 00:03:09
  TRACK 06 AUDIO
    TITLE "P1Q_t_1339-1348_06"
    INDEX 01 00:07:12
  TRACK 07 AUDIO
    TITLE "P1Q_t_1339-1348_07"
    INDEX 01 00:07:57
  TRACK 08 AUDIO
    TITLE "P1Q_t_1339-1348_08"
    INDEX 01 00:08:67
  TRACK 09 AUDIO
    TITLE "P1Q_t_1339-1348_09"
    INDEX 01 00:09:11
  TRACK 10 AUDIO
    TITLE "P1Q_t_1339-1348_10"
    INDEX 01 00:11:59
  TRACK 11 AUDIO
    TITLE "P1Q_t_1339-1348_11"
    INDEX 01 00:12:04
  TRACK 12 AUDIO
    TITLE "P1Q_t_1339-1348_12"
    INDEX 01 00:15:47
  TRACK 13 AUDIO
    TITLE "P1Q_t_1339-1348_13"
    INDEX 01 00:16:19
  TRACK 14 AUDIO
    TITLE "P1Q_t_1339-1348_14"
    INDEX 01 00:17:42
  TRACK 15 AUDIO
    TITLE "P1Q_t_1339-1348_15"
    INDEX 01 00:17:62
  TRACK 16 AUDIO
    TITLE "P1Q_t_1339-1348_16"
    INDEX 01 00:21:58
  TRACK 17 AUDIO
    TITLE "P1Q_t_1339-1348_17"
    INDEX 01 00:22:02
  TRACK 18 AUDIO
    TITLE "P1Q_t_1339-1348_18"
    INDEX 01 00:25:53
  TRACK 19 AUDIO
    TITLE "P1Q_t_1339-1348_19"
    INDEX 01 00:26:23
  TRACK 20 AUDIO
    TITLE "P1Q_t_1339-1348_20"
    INDEX 01 00:27:52
  TRACK 21 AUDIO
    TITLE "P1Q_t_1339-1348_21"
    INDEX 01 00:27:74
  TRACK 22 AUDIO
    TITLE "P1Q_t_1339-1348_22"
    INDEX 01 00:29:20
  TRACK 23 AUDIO
    TITLE "P1Q_t_1339-1348_23"
    INDEX 01 00:29:39
  TRACK 24 AUDIO
    TITLE "P1Q_t_1339-1348_24"
    INDEX 01 00:34:31
  TRACK 25 AUDIO
    TITLE "P1Q_t_1339-1348_25"
    INDEX 01 00:35:03
  TRACK 26 AUDIO
    TITLE "P1Q_t_1339-1348_26"
    INDEX 01 00:36:10
  TRACK 27 AUDIO
    TITLE "P1Q_t_1339-1348_27"
    INDEX 01 00:36:32
  TRACK 28 AUDIO
    TITLE "P1Q_t_1339-1348_28"
    INDEX 01 00:37:47
  TRACK 29 AUDIO
    TITLE "P1Q_t_1339-1348_29"
    INDEX 01 00:37:66
  TRACK 30 AUDIO
    TITLE "P1Q_t_1339-1348_30"
    INDEX 01 00:42:05
  TRACK 31 AUDIO
    TITLE "P1Q_t_1339-1348_31"
    INDEX 01 00:42:50
  TRACK 32 AUDIO
    TITLE "P1Q_t_1339-1348_32"
    INDEX 01 00:43:65
  TRACK 33 AUDIO
    TITLE "P1Q_t_1339-1348_33"
    INDEX 01 00:44:10
  TRACK 34 AUDIO
    TITLE "P1Q_t_1339-1348_34"
    INDEX 01 00:46:54
  TRACK 35 AUDIO
    TITLE "P1Q_t_1339-1348_35"
    INDEX 01 00:46:75
  TRACK 36 AUDIO
    TITLE "P1Q_t_1339-1348_36"
    INDEX 01 00:53:03
  TRACK 37 AUDIO
    TITLE "P1Q_t_1339-1348_37"
    INDEX 01 00:53:50
  TRACK 38 AUDIO
    TITLE "P1Q_t_1339-1348_38"
    INDEX 01 00:54:69
  TRACK 39 AUDIO
    TITLE "P1Q_t_1339-1348_39"
    INDEX 01 00:55:13
  TRACK 40 AUDIO
    TITLE "P1Q_t_1339-1348_40"
    INDEX 01 00:57:04
  TRACK 41 AUDIO
    TITLE "P1Q_t_1339-1348_41"
    INDEX 01 00:57:24
  TRACK 42 AUDIO
    TITLE "P1Q_t_1339-1348_42"
    INDEX 01 01:02:25
  TRACK 43 AUDIO
    TITLE "P1Q_t_1339-1348_43"
    INDEX 01 01:02:70
  TRACK 44 AUDIO
    TITLE "P1Q_t_1339-1348_44"
    INDEX 01 01:04:18
  TRACK 45 AUDIO
    TITLE "P1Q_t_1339-1348_45"
    INDEX 01 01:04:38
  TRACK 46 AUDIO
    TITLE "P1Q_t_1339-1348_46"
    INDEX 01 01:07:20
  TRACK 47 AUDIO
    TITLE "P1Q_t_1339-1348_47"
    INDEX 01 01:07:40
  TRACK 48 AUDIO
    TITLE "P1Q_t_1339-1348_48"
    INDEX 01 01:11:24
  TRACK 49 AUDIO
    TITLE "P1Q_t_1339-1348_49"
    INDEX 01 01:11:69
  TRACK 50 AUDIO
    TITLE "P1Q_t_1339-1348_50"
    INDEX 01 01:13:07
  TRACK 51 AUDIO
    TITLE "P1Q_t_1339-1348_51"
    INDEX 01 01:13:29
  TRACK 52 AUDIO
    TITLE "P1Q_t_1339-1348_52"
    INDEX 01 01:16:55
  TRACK 53 AUDIO
    TITLE "P1Q_t_1339-1348_53"
    INDEX 01 01:17:01
  TRACK 54 AUDIO
    TITLE "P1Q_t_1339-1348_54"
    INDEX 01 01:22:10
  TRACK 55 AUDIO
    TITLE "P1Q_t_1339-1348_55"
    INDEX 01 01:22:55
  TRACK 56 AUDIO
    TITLE "P1Q_t_1339-1348_56"
    INDEX 01 01:23:72
  TRACK 57 AUDIO
    TITLE "P1Q_t_1339-1348_57"
    INDEX 01 01:24:19
  TRACK 58 AUDIO
    TITLE "P1Q_t_1339-1348_58"
    INDEX 01 01:26:63
  TRACK 59 AUDIO
    TITLE "P1Q_t_1339-1348_59"
    INDEX 01 01:27:05
  TRACK 60 AUDIO
    TITLE "P1Q_t_1339-1348_60"
    INDEX 01 01:32:12
